<svg id="Logo" xmlns="http://www.w3.org/2000/svg" width="1024" height="1024" viewBox="0 0 1024 1024"><title>Xilog_vector</title><path d="M249,256H375L511.776,431.0733l205.19-262.6315A398.1316,398.1316,0,0,0,512,112c-220.9139,0-400,179.0861-400,400A398.7279,398.7279,0,0,0,228.27,793.9446L448.7746,511.7114Z"/><path d="M795.73,230.0554,575.2255,512.2886,775,768H649L512.224,592.9268l-205.19,262.6314A398.1316,398.1316,0,0,0,512,912c220.9139,0,400-179.0861,400-400A398.7282,398.7282,0,0,0,795.73,230.0554Z"/></svg>