<svg id="Layer_1" data-name="Layer 1" xmlns="http://www.w3.org/2000/svg" viewBox="0 0 3988.22 970"><defs><style>.cls-1{fill:#fff;}</style></defs><polygon class="cls-1" points="1058.22 960 797.15 960 519.53 629.14 388.98 473.57 0 10 261.08 10 519.53 318 650.07 473.57 1058.22 960"/><polygon class="cls-1" points="1058.22 10 669.24 473.57 538.7 629.14 261.07 960 0 960 408.15 473.57 538.7 318 797.14 10 1058.22 10"/><rect class="cls-1" x="1088.22" y="10" width="200" height="950"/><rect class="cls-1" x="1328.22" y="9.81" width="200" height="950"/><rect class="cls-1" x="1528.22" y="759.81" width="500" height="200"/><path class="cls-1" d="M2503.22,227.1a285,285,0,1,1-201.53,83.47,283.13,283.13,0,0,1,201.53-83.47m0-200c-267.86,0-485,217.14-485,485s217.14,485,485,485,485-217.15,485-485-217.14-485-485-485Z" transform="translate(0 -27.1)"/><path class="cls-1" d="M3788.22,512v.1a285,285,0,1,1-285-285V27.1c-267.86,0-485,217.14-485,485s217.14,485,485,485c233.58,0,428.59-165.12,474.67-385a486.64,486.64,0,0,0,10.33-100V512Z" transform="translate(0 -27.1)"/><path class="cls-1" d="M3988.22,412.1v100a486.64,486.64,0,0,1-10.33,100H3488.22v-200Z" transform="translate(0 -27.1)"/><polygon class="cls-1" points="3786.06 103.3 3689.36 200 3503.22 200 3503.22 0 3682.76 0 3786.06 103.3"/></svg>